# xmcd CD database file
# Generated: Wed Jul 11 11:45:45 2001 by KSCD
# 
# Track frame offsets:
#       150
#       10997
#       20015
#       30347
#       41640
#
# Disc length: 673 seconds
#
# Revision: 2
# Processed by: cddbd v1.4b42PL0 Copyright (c) Steve Scherf et al.
# Submitted via: Kscd 1.3.0
#
DISCID=32029f05
DTITLE=The Farrell Bros./go to Hell
DYEAR=1900
DGENRE=
TTITLE0=Draggin' Me Down
TTITLE1=I Saw the Light
TTITLE2=Devil in Disguise
TTITLE3=You'll Be Rewarded Over There
TTITLE4=(I'm on the) ....Go To Hell!
EXTD=
EXTT0=
EXTT1=
EXTT2=
EXTT3=
EXTT4=
PLAYORDER=
